<svg width="29" height="25" viewBox="0 0 29 25" fill="none" xmlns="http://www.w3.org/2000/svg">
<path d="M14.1081 0.303476C12.9274 0.683351 11.7935 1.12367 10.6668 1.65526C6.36386 3.74935 2.0345 6.93546 0.653454 12.2302C-0.0295053 14.8402 0.889334 18.1353 3.04497 20.088C5.15308 22.0904 7.75884 23.0602 10.3101 23.6615C11.8581 24.0182 13.4514 24.1041 14.9983 23.9325C21.1537 23.1876 26.3974 18.8472 28.0023 12.9578C28.8072 10.0378 28.0773 6.43883 25.7968 4.25247C23.5732 2.03259 20.6131 1.09065 17.8631 0.637101C16.6206 0.437432 15.4025 0.339544 14.1081 0.303476C15.3885 0.537643 16.5724 0.822169 17.7504 1.18964C23.1538 2.53871 27.7083 7.38977 25.6904 12.2331C24.0736 16.8854 19.4363 20.4125 14.56 20.9608C13.3288 21.0969 12.0817 21.0404 10.8561 20.7817C6.40276 19.9721 2.05593 17.1205 2.85428 12.7091C3.53027 8.4313 7.08829 4.76389 10.963 2.15145C11.9755 1.47485 13.0103 0.867704 14.1081 0.303476Z" fill="white"/>
</svg>
