<svg width="4109" height="999" viewBox="0 0 4109 999" fill="none" xmlns="http://www.w3.org/2000/svg">
<path d="M4109 999H0V0H4109V999ZM849.688 267.7C803.855 267.7 762.422 277.967 725.389 298.5C688.722 318.667 659.939 346.717 639.039 382.65C618.139 418.217 607.689 458.366 607.688 503.1C607.688 547.833 618.139 588.166 639.039 624.1C659.939 659.666 688.722 687.534 725.389 707.7C762.422 728.233 803.855 738.5 849.688 738.5C895.522 738.5 936.772 728.233 973.438 707.7C1010.47 687.534 1039.44 659.666 1060.34 624.1C1081.24 588.166 1091.69 547.833 1091.69 503.1C1091.69 458.367 1081.24 418.217 1060.34 382.65C1039.44 346.717 1010.47 318.667 973.438 298.5C936.772 277.967 895.522 267.7 849.688 267.7ZM2597.44 267.7C2551.61 267.7 2510.18 277.967 2473.14 298.5C2436.48 318.667 2407.69 346.717 2386.79 382.65C2365.89 418.217 2355.44 458.366 2355.44 503.1C2355.44 547.833 2365.89 588.166 2386.79 624.1C2407.69 659.666 2436.48 687.534 2473.14 707.7C2510.18 728.233 2551.61 738.5 2597.44 738.5C2643.28 738.5 2684.53 728.233 2721.19 707.7C2758.23 687.534 2787.19 659.666 2808.09 624.1C2828.99 588.166 2839.44 547.833 2839.44 503.1C2839.44 458.367 2828.99 418.217 2808.09 382.65C2787.19 346.717 2758.23 318.667 2721.19 298.5C2684.53 277.967 2643.28 267.7 2597.44 267.7ZM3674.88 267.7C3629.05 267.7 3587.62 277.967 3550.58 298.5C3513.92 318.667 3485.13 346.717 3464.23 382.65C3443.33 418.217 3432.88 458.366 3432.88 503.1C3432.88 547.833 3443.33 588.166 3464.23 624.1C3485.13 659.666 3513.92 687.534 3550.58 707.7C3587.62 728.233 3629.05 738.5 3674.88 738.5C3720.72 738.5 3761.97 728.233 3798.63 707.7C3835.67 687.534 3864.63 659.666 3885.53 624.1C3906.43 588.166 3916.88 547.833 3916.88 503.1C3916.88 458.367 3906.43 418.217 3885.53 382.65C3864.63 346.717 3835.67 318.667 3798.63 298.5C3761.97 277.967 3720.72 267.7 3674.88 267.7ZM216.6 279.25V727.5H316.7V608.15H388.75C427.25 608.15 460.25 601.366 487.75 587.8C515.617 574.233 536.883 555.166 551.55 530.6C566.216 505.666 573.55 476.517 573.55 443.15C573.55 410.15 566.216 381.366 551.55 356.8C536.883 332.233 515.617 313.166 487.75 299.6C460.25 286.033 427.25 279.25 388.75 279.25H216.6ZM1151.17 279.25V727.5H1251.27V586.15H1331.02L1417.92 727.5H1533.97L1430.02 566.35C1456.42 553.883 1476.59 536.283 1490.52 513.55C1504.82 490.45 1511.97 463.5 1511.97 432.7C1511.97 401.9 1504.82 374.95 1490.52 351.85C1476.22 328.75 1455.5 310.967 1428.37 298.5C1401.24 285.667 1368.97 279.25 1331.57 279.25H1151.17ZM1545.89 279.25V367.8H1691.64V727.5H1791.74V367.8H1937.49V279.25H1545.89ZM1991.21 279.25V727.5H2091.31V555.9H2294.81V469H2091.31V367.25H2320.11V279.25H1991.21ZM2898.92 279.25V727.5H3222.87V638.95H2999.02V279.25H2898.92ZM3273.29 279.25V727.5H3373.39V279.25H3273.29ZM849.688 357.9C876.455 357.9 900.656 364.133 922.289 376.6C943.922 389.066 960.789 406.3 972.889 428.3C985.355 450.3 991.589 475.233 991.589 503.1C991.589 530.6 985.355 555.534 972.889 577.9C960.789 599.9 943.922 617.133 922.289 629.6C900.656 642.066 876.455 648.3 849.688 648.3C822.922 648.3 798.722 642.066 777.089 629.6C755.456 617.133 738.405 599.9 725.938 577.9C713.838 555.534 707.789 530.6 707.789 503.1C707.789 475.233 713.839 450.3 725.938 428.3C738.405 406.3 755.456 389.066 777.089 376.6C798.722 364.133 822.922 357.9 849.688 357.9ZM2597.44 357.9C2624.21 357.9 2648.41 364.133 2670.04 376.6C2691.68 389.066 2708.54 406.3 2720.64 428.3C2733.11 450.3 2739.34 475.233 2739.34 503.1C2739.34 530.6 2733.11 555.534 2720.64 577.9C2708.54 599.9 2691.68 617.133 2670.04 629.6C2648.41 642.066 2624.21 648.3 2597.44 648.3C2570.68 648.3 2546.48 642.066 2524.84 629.6C2503.21 617.133 2486.16 599.9 2473.69 577.9C2461.59 555.534 2455.54 530.6 2455.54 503.1C2455.54 475.233 2461.59 450.3 2473.69 428.3C2486.16 406.3 2503.21 389.066 2524.84 376.6C2546.48 364.133 2570.68 357.9 2597.44 357.9ZM3674.88 357.9C3701.65 357.9 3725.85 364.133 3747.48 376.6C3769.12 389.066 3785.98 406.3 3798.08 428.3C3810.55 450.3 3816.78 475.233 3816.78 503.1C3816.78 530.6 3810.55 555.534 3798.08 577.9C3785.98 599.9 3769.12 617.133 3747.48 629.6C3725.85 642.066 3701.65 648.3 3674.88 648.3C3648.12 648.3 3623.92 642.066 3602.28 629.6C3580.65 617.133 3563.6 599.9 3551.13 577.9C3539.03 555.534 3532.98 530.6 3532.98 503.1C3532.98 475.233 3539.03 450.3 3551.13 428.3C3563.6 406.3 3580.65 389.066 3602.28 376.6C3623.92 364.133 3648.12 357.9 3674.88 357.9ZM384.35 367.8C412.583 367.8 434.4 374.217 449.8 387.05C465.566 399.883 473.45 418.584 473.45 443.15C473.45 467.717 465.566 486.6 449.8 499.8C434.4 513 412.583 519.6 384.35 519.6H316.7V367.8H384.35ZM1327.17 367.8C1353.94 367.8 1374.65 373.483 1389.32 384.85C1404.35 395.85 1411.87 411.8 1411.87 432.7C1411.87 453.6 1404.35 469.733 1389.32 481.1C1374.65 492.1 1353.94 497.6 1327.17 497.6H1251.27V367.8H1327.17Z" fill="black"/>
</svg>
