<svg width="1998" height="2000" viewBox="0 0 1998 2000" fill="none" xmlns="http://www.w3.org/2000/svg">
<g filter="url(#filter0_d_447_1140)">
<path d="M1874.52 1999.58C1824.81 1994.11 1794.85 1964.31 1778.14 1919.58C1766.49 1888.41 1766.71 1855.71 1770.12 1823.07C1775.21 1774.28 1795.08 1731.02 1820.7 1690.01C1839.66 1659.67 1850.02 1627.02 1848.16 1590.91C1846.74 1563.27 1839.31 1537.6 1823.12 1514.9C1799.81 1482.23 1758.4 1477.79 1726.59 1504.11C1709.36 1518.37 1698.83 1537.5 1687.83 1556.28C1678.05 1572.99 1667.53 1588.96 1652.22 1601.31C1615.7 1630.78 1557.98 1621.66 1534.89 1582.43C1526.3 1567.84 1525.17 1551.66 1526.29 1535.14C1528 1510.09 1538.97 1489.07 1554.14 1469.75C1574.5 1443.81 1598.62 1421.64 1622.79 1399.4C1640.99 1382.65 1659.14 1365.65 1675.49 1347.15C1691.44 1329.1 1702.46 1307.55 1705.31 1283.18C1708.88 1252.79 1704.2 1224.81 1676.75 1205.59C1664.49 1197.01 1650.41 1193.33 1635.81 1193.36C1584.66 1193.48 1533.49 1193.58 1482.37 1195.03C1453.31 1195.85 1425.21 1203.09 1398.71 1215.4C1358.84 1233.92 1333.87 1265.98 1317.48 1305.73C1310.76 1322.02 1305 1338.86 1296.74 1354.34C1276.6 1392.1 1231.5 1391.83 1205.02 1366.14C1185.82 1347.52 1177.14 1323.71 1174.76 1297.75C1168.33 1227.59 1198.77 1173.55 1250.14 1129.12C1282.86 1100.82 1321.73 1084.21 1362.23 1070.74C1395.49 1059.68 1429.3 1049.73 1459.74 1031.87C1515.83 998.97 1547.73 949.81 1556.16 885.29C1559.38 860.69 1559.4 836.29 1552.67 812.27C1540.75 769.76 1510.65 746.81 1469.25 737.59C1454.62 734.33 1439.27 733.73 1424.21 733.16C1389.96 731.87 1356.07 729.43 1323.97 715.7C1251.19 684.57 1211.85 604.26 1232.72 527.99C1241.86 494.61 1262.54 469.06 1289.38 447.99C1328.56 417.24 1373.64 399.8 1422.05 391.19C1452.44 385.79 1483.3 382.78 1514.03 379.54C1566.73 373.99 1618.68 365.68 1665.71 339.26C1699.54 320.25 1726.36 294.77 1737.08 255.88C1744.26 229.82 1745.19 203.03 1746.44 176.18C1747.44 154.75 1748.89 132.96 1753.78 112.18C1762.17 76.48 1785.67 50.75 1815.8 31.13C1847.74 10.38 1882.02 -0.1 1918 0.01L1 0V2000H1883C1880.2 2000.02 1877.37 1999.89 1874.52 1999.58Z" fill="#FFFDF5"/>
</g>
<defs>
<filter id="filter0_d_447_1140" x="-79" y="-110" width="2077" height="2160" filterUnits="userSpaceOnUse" color-interpolation-filters="sRGB">
<feFlood flood-opacity="0" result="BackgroundImageFix"/>
<feColorMatrix in="SourceAlpha" type="matrix" values="0 0 0 0 0 0 0 0 0 0 0 0 0 0 0 0 0 0 127 0" result="hardAlpha"/>
<feOffset dy="-30"/>
<feGaussianBlur stdDeviation="40"/>
<feComposite in2="hardAlpha" operator="out"/>
<feColorMatrix type="matrix" values="0 0 0 0 0 0 0 0 0 0 0 0 0 0 0 0 0 0 0.25 0"/>
<feBlend mode="normal" in2="BackgroundImageFix" result="effect1_dropShadow_447_1140"/>
<feBlend mode="normal" in="SourceGraphic" in2="effect1_dropShadow_447_1140" result="shape"/>
</filter>
</defs>
</svg>
