<svg width="893" height="153" viewBox="0 0 893 153" fill="none" xmlns="http://www.w3.org/2000/svg">
<path d="M1.05786 58.644C46.0741 49.5423 91.0904 40.4407 128.179 31.5701C165.268 22.6995 193.065 14.3359 208.122 9.65831C223.18 4.98077 224.656 4.24279 225.047 3.73963C225.438 3.23647 224.7 2.99048 224.074 3.84772C222.282 6.30127 221.957 16.8181 220.72 32.0695C220.14 39.2186 218.991 45.107 217.5 51.4692C216.009 57.8315 214.041 64.4732 211.428 71.3386C208.815 78.2039 205.618 85.0917 201.51 91.7148C197.403 98.3379 192.483 104.488 187.243 109.87C182.003 115.252 176.591 119.679 171.097 123.559C160.477 131.059 148.958 135.9 137.802 139.251C127.39 142.378 118.127 142.132 110.937 141.394C103.92 140.673 98.977 135.691 95.1343 130.865C86.702 120.273 89.0181 113.321 89.7561 111.211C90.1352 110.128 91.97 109.84 109.95 108.233C127.929 106.627 162.368 103.921 205.446 96.5004C248.524 89.0797 299.198 77.0262 326.533 70.3248C353.868 63.6234 356.328 62.6394 357.718 62.7475C359.108 62.8556 359.354 64.0856 359.112 65.2112C358.058 70.109 355.642 74.775 355.504 83.5822C355.474 85.5073 356.611 86.2098 357.729 86.59C360.211 87.4339 364.058 86.7242 368.765 85.8595C374.116 84.8765 383.64 79.3072 395.675 71.8678C400.971 68.594 404.02 65.4124 405.668 64.5067C407.315 63.601 407.315 64.831 407.069 66.2026C406.55 69.098 405.824 73.7687 407.423 78.6139C409.012 83.4303 418.712 79.2774 427.986 74.3426C444.273 65.6752 453.024 54.9317 454.761 53.1875C455.325 52.6211 456.006 53.9031 456.26 55.7629C458.024 68.7119 451.548 80.9993 452.771 78.7966C454.423 75.8202 458.421 69.2141 463.77 62.1027C469.118 54.9914 475.76 47.6117 480.534 42.58C487.821 34.9004 493.017 31.3241 496.863 30.4445C510.818 27.2532 508.193 62.6022 509.058 65.3342C509.415 66.4634 510.661 66.5902 516.702 59.0912C522.744 51.5922 533.814 36.3408 540.008 27.9921C546.203 19.6433 547.187 18.6593 547.448 18.5214C547.708 18.3835 547.216 19.1215 549.423 26.6354C551.629 34.1493 556.549 48.4167 559.576 63.0233C562.602 77.63 563.586 92.1434 563.109 102.818C562.632 113.492 560.664 119.888 557.928 125.274C552.77 135.429 543.035 141.856 530.903 146.448C524.153 149.002 515.327 149.318 503.143 149.455C490.959 149.593 475.462 148.855 442.141 143.063C408.821 137.271 358.147 126.448 329.951 120.134C301.755 113.82 297.573 112.344 296.772 111.092C295.971 109.84 298.677 108.856 396.991 92.3596C495.305 75.8633 689.145 43.8845 789.495 27.4106C889.844 10.9367 890.828 10.9367 889.859 11.3057C888.89 11.6747 885.938 12.4127 883.925 12.9158C881.913 13.419 880.929 13.665 879.915 13.9184" stroke="black" stroke-width="6"/>
</svg>
