<svg width="4109" height="999" viewBox="0 0 4109 999" fill="none" xmlns="http://www.w3.org/2000/svg">
<rect width="4109" height="999" fill="#F40706"/>
<path d="M3674.88 738.499C3629.05 738.499 3587.62 728.233 3550.58 707.699C3513.92 687.533 3485.13 659.666 3464.23 624.099C3443.33 588.166 3432.88 547.833 3432.88 503.099C3432.88 458.366 3443.33 418.216 3464.23 382.649C3485.13 346.716 3513.92 318.666 3550.58 298.499C3587.62 277.966 3629.05 267.699 3674.88 267.699C3720.72 267.699 3761.97 277.966 3798.63 298.499C3835.67 318.666 3864.63 346.716 3885.53 382.649C3906.43 418.216 3916.88 458.366 3916.88 503.099C3916.88 547.833 3906.43 588.166 3885.53 624.099C3864.63 659.666 3835.67 687.533 3798.63 707.699C3761.97 728.233 3720.72 738.499 3674.88 738.499ZM3674.88 648.299C3701.65 648.299 3725.85 642.066 3747.48 629.599C3769.12 617.133 3785.98 599.899 3798.08 577.899C3810.55 555.533 3816.78 530.599 3816.78 503.099C3816.78 475.233 3810.55 450.299 3798.08 428.299C3785.98 406.299 3769.12 389.066 3747.48 376.599C3725.85 364.133 3701.65 357.899 3674.88 357.899C3648.12 357.899 3623.92 364.133 3602.28 376.599C3580.65 389.066 3563.6 406.299 3551.13 428.299C3539.03 450.299 3532.98 475.233 3532.98 503.099C3532.98 530.599 3539.03 555.533 3551.13 577.899C3563.6 599.899 3580.65 617.133 3602.28 629.599C3623.92 642.066 3648.12 648.299 3674.88 648.299Z" fill="black"/>
<path d="M3373.39 279.25V727.5H3273.29V279.25H3373.39Z" fill="black"/>
<path d="M2999.02 279.25V638.95H3222.87V727.5H2898.92V279.25H2999.02Z" fill="black"/>
<path d="M2597.44 738.499C2551.61 738.499 2510.18 728.233 2473.14 707.699C2436.48 687.533 2407.69 659.666 2386.79 624.099C2365.89 588.166 2355.44 547.833 2355.44 503.099C2355.44 458.366 2365.89 418.216 2386.79 382.649C2407.69 346.716 2436.48 318.666 2473.14 298.499C2510.18 277.966 2551.61 267.699 2597.44 267.699C2643.28 267.699 2684.53 277.966 2721.19 298.499C2758.23 318.666 2787.19 346.716 2808.09 382.649C2828.99 418.216 2839.44 458.366 2839.44 503.099C2839.44 547.833 2828.99 588.166 2808.09 624.099C2787.19 659.666 2758.23 687.533 2721.19 707.699C2684.53 728.233 2643.28 738.499 2597.44 738.499ZM2597.44 648.299C2624.21 648.299 2648.41 642.066 2670.04 629.599C2691.68 617.133 2708.54 599.899 2720.64 577.899C2733.11 555.533 2739.34 530.599 2739.34 503.099C2739.34 475.233 2733.11 450.299 2720.64 428.299C2708.54 406.299 2691.68 389.066 2670.04 376.599C2648.41 364.133 2624.21 357.899 2597.44 357.899C2570.68 357.899 2546.48 364.133 2524.84 376.599C2503.21 389.066 2486.16 406.299 2473.69 428.299C2461.59 450.299 2455.54 475.233 2455.54 503.099C2455.54 530.599 2461.59 555.533 2473.69 577.899C2486.16 599.899 2503.21 617.133 2524.84 629.599C2546.48 642.066 2570.68 648.299 2597.44 648.299Z" fill="black"/>
<path d="M1991.21 279.25H2320.11V367.25H2091.31V469H2294.81V555.9H2091.31V727.5H1991.21V279.25Z" fill="black"/>
<path d="M1937.49 367.8H1791.74V727.5H1691.64V367.8H1545.89V279.25H1937.49V367.8Z" fill="black"/>
<path d="M1417.92 727.5L1331.02 586.15H1251.27V727.5H1151.17V279.25H1331.57C1368.97 279.25 1401.24 285.667 1428.37 298.5C1455.5 310.967 1476.22 328.75 1490.52 351.85C1504.82 374.95 1511.97 401.9 1511.97 432.7C1511.97 463.5 1504.82 490.45 1490.52 513.55C1476.59 536.283 1456.42 553.883 1430.02 566.35L1533.97 727.5H1417.92ZM1251.27 497.6H1327.17C1353.94 497.6 1374.65 492.1 1389.32 481.1C1404.35 469.733 1411.87 453.6 1411.87 432.7C1411.87 411.8 1404.35 395.85 1389.32 384.85C1374.65 373.483 1353.94 367.8 1327.17 367.8H1251.27V497.6Z" fill="black"/>
<path d="M849.689 738.499C803.856 738.499 762.423 728.233 725.389 707.699C688.723 687.533 659.939 659.666 639.039 624.099C618.139 588.166 607.689 547.833 607.689 503.099C607.689 458.366 618.139 418.216 639.039 382.649C659.939 346.716 688.723 318.666 725.389 298.499C762.423 277.966 803.856 267.699 849.689 267.699C895.523 267.699 936.773 277.966 973.44 298.499C1010.47 318.666 1039.44 346.716 1060.34 382.649C1081.24 418.216 1091.69 458.366 1091.69 503.099C1091.69 547.833 1081.24 588.166 1060.34 624.099C1039.44 659.666 1010.47 687.533 973.44 707.699C936.773 728.233 895.523 738.499 849.689 738.499ZM849.689 648.299C876.456 648.299 900.656 642.066 922.289 629.599C943.923 617.133 960.789 599.899 972.889 577.899C985.356 555.533 991.589 530.599 991.589 503.099C991.589 475.233 985.356 450.299 972.889 428.299C960.789 406.299 943.923 389.066 922.289 376.599C900.656 364.133 876.456 357.899 849.689 357.899C822.923 357.899 798.723 364.133 777.089 376.599C755.456 389.066 738.406 406.299 725.939 428.299C713.839 450.299 707.789 475.233 707.789 503.099C707.789 530.599 713.839 555.533 725.939 577.899C738.406 599.899 755.456 617.133 777.089 629.599C798.723 642.066 822.923 648.299 849.689 648.299Z" fill="black"/>
<path d="M216.6 279.25H388.75C427.25 279.25 460.25 286.033 487.75 299.6C515.616 313.167 536.883 332.233 551.55 356.8C566.216 381.367 573.55 410.15 573.55 443.15C573.55 476.517 566.216 505.667 551.55 530.6C536.883 555.167 515.616 574.233 487.75 587.8C460.25 601.367 427.25 608.15 388.75 608.15H316.7V727.5H216.6V279.25ZM384.35 519.6C412.583 519.6 434.4 513 449.8 499.8C465.566 486.6 473.45 467.717 473.45 443.15C473.45 418.583 465.566 399.883 449.8 387.05C434.4 374.217 412.583 367.8 384.35 367.8H316.7V519.6H384.35Z" fill="black"/>
</svg>
